<?xml version="1.0" encoding="UTF-8"?> <svg xmlns="http://www.w3.org/2000/svg" viewBox="0 0 287.52 139.8"> <defs> <style>.cls-1,.cls-4{fill:#007f91;}.cls-2,.cls-3{fill:#fff;}.cls-3,.cls-4{fill-rule:evenodd;}</style> </defs> <title>elcos logo</title> <g id="Слой_2" > <g id="Слой_1-2" > <path class="cls-1" d="M93.11,101.78H64.28V0H93.11ZM67.5,98.56H89.9V3.22H67.5Z"></path> <path class="cls-1" d="M192.78,102.88c-21.28,0-32.08-6.21-32.08-18.45V36.66c0-12.25,10.8-18.46,32.08-18.46a53.49,53.49,0,0,1,21.38,4.06c6.57,2.9,9.89,7.52,9.89,13.73V85.12C224.05,96.91,213.53,102.88,192.78,102.88Zm0-81.46c-19.42,0-28.86,5-28.86,15.24V84.43c0,10.25,9.44,15.24,28.86,15.24,18.88,0,28.06-4.76,28.06-14.55V36c0-4.89-2.61-8.41-8-10.78A50.34,50.34,0,0,0,192.78,21.42Zm-.34,69.21c-3.89,0-6.12-2-6.12-5.63V36.12c0-3.51,2.23-5.53,6.12-5.53s6,2,6,5.53V85C198.43,88.58,196.25,90.63,192.44,90.63Zm0-56.82c-2.68,0-2.9,1.09-2.9,2.31V85c0,1.53.47,2.41,2.9,2.41s2.78-.88,2.78-2.41V36.12C195.22,34.66,194.76,33.81,192.44,33.81Z"></path> <rect class="cls-2" x="65.89" y="1.53" width="25.61" height="98.56"></rect> <path class="cls-3" d="M196.83,84.92V36c0-2.63-1.48-3.92-4.39-3.92s-4.51,1.29-4.51,3.92V84.92c0,2.7,1.5,4,4.51,4s4.39-1.32,4.39-4m-34.52-.57V36.58q0-16.84,30.47-16.85a51.81,51.81,0,0,1,20.74,3.92c5.95,2.64,8.92,6.69,8.92,12.26V85q0,16.14-29.66,16.16-30.47,0-30.47-16.85"></path> <path class="cls-4" d="M34.42,54.32V36c0-2.62-1.47-3.92-4.42-3.92s-4.47,1.3-4.47,3.92V54.32ZM60,66.29H25.53V84.91c0,2.7,1.5,4,4.47,4s4.42-1.34,4.42-4V68.82H60V85q0,16.16-30.13,16.17Q0,101.2,0,84.35V36.58Q0,19.72,29.82,19.73,60,19.73,60,35.9Z"></path> <path class="cls-4" d="M157.2,55.61H131.67V36c0-2.62-1.47-3.92-4.41-3.92s-4.48,1.3-4.48,3.92V84.91c0,2.7,1.5,4,4.48,4s4.41-1.34,4.41-4V65.58H157.2V85q0,16.16-29.58,16.17-30.36,0-30.37-16.85V36.58q0-16.86,30.37-16.85,29.59,0,29.58,16.17Z"></path> <path class="cls-4" d="M227.58,68H253.1V84.91c0,2.7,1.44,4,4.3,4s4.32-2.58,4.32-7.77q0-10.09-5.31-13-20-8.07-24.17-11.24c-2.76-2.14-4.14-5.33-4.14-9.6V36.58q0-16.86,29.85-16.85,29,0,29,16.17V51.64H262l.52-9.57c0-6.64-1.56-10-4.75-10S253,34.19,253,38.36s.71,7.56,2.12,9.76,9.23,6,23.5,11.36c5.92,3.24,8.89,7.56,8.89,12.91v12q0,16.86-30.28,16.85-29.67,0-29.66-16.17Z"></path> <path class="cls-4" d="M281.75,122.57v-3.79a.39.39,0,0,0-.26-.35,2.48,2.48,0,0,0-.61-.15,2.39,2.39,0,0,0-.54.15.37.37,0,0,0-.26.35v3.92a.73.73,0,0,0,.05.3,1.22,1.22,0,0,0,.18.26,3.85,3.85,0,0,0,1,.56c.46.2,1.11.45,2,.76a7.64,7.64,0,0,1,1.64.74,5.11,5.11,0,0,1,1.07.84,2.35,2.35,0,0,1,.49.66,1.63,1.63,0,0,1,.14.63v6c0,.59-.57,1-1.7,1.33a15.44,15.44,0,0,1-3.72.48H281l-.58,0a15.17,15.17,0,0,1-3.57-.44c-1.08-.28-1.62-.69-1.62-1.24v-5.37h4.85v4.35a.48.48,0,0,0,.26.43,1.6,1.6,0,0,0,.6.23,1.72,1.72,0,0,0,.61-.23.47.47,0,0,0,.26-.39v-4.78a1.9,1.9,0,0,0,0-.25.61.61,0,0,0-.15-.25,3,3,0,0,0-.92-.65,14,14,0,0,0-2.07-.83,8,8,0,0,1-1.76-.82,4.85,4.85,0,0,1-1.13-1,2.38,2.38,0,0,1-.4-.62,1.83,1.83,0,0,1-.12-.6v-4.67c0-.64.56-1.12,1.68-1.45a12.89,12.89,0,0,1,3.68-.5h.93a12.57,12.57,0,0,1,3.48.53c1.06.33,1.59.8,1.59,1.42v4.38h-4.84Zm-16-5.77a20.53,20.53,0,0,1,2.1-.49,9.81,9.81,0,0,1,1.64-.17h.58a3.37,3.37,0,0,1,2.13.56,1.86,1.86,0,0,1,.69,1.52v16.93H268V119a.43.43,0,0,0-.26-.41,1,1,0,0,0-1.15,0,.45.45,0,0,0-.26.41v16.17h-4.84V119a.5.5,0,0,0-.26-.43,1,1,0,0,0-1.15,0,.49.49,0,0,0-.26.45v16.17H255V116.34h4.84v.36a13,13,0,0,1,1.87-.46,10.49,10.49,0,0,1,1.41-.13h.58a3.27,3.27,0,0,1,1.29.21,2.3,2.3,0,0,1,.73.48m-17.81,7.45v-5.47a.39.39,0,0,0-.26-.35,2.59,2.59,0,0,0-.61-.15,2.39,2.39,0,0,0-.54.15.38.38,0,0,0-.27.35v5.47Zm-6.51-6.13c0-.66.55-1.15,1.67-1.48a12.89,12.89,0,0,1,3.68-.5h.93a12.27,12.27,0,0,1,3.48.53c1.06.33,1.59.81,1.59,1.45v8.17h-6.52v6.46a.36.36,0,0,0,.24.34,1.87,1.87,0,0,0,.52.18,1.78,1.78,0,0,0,.66-.16.41.41,0,0,0,.26-.36V128.4h4.84v5q0,.88-1.59,1.35a13.05,13.05,0,0,1-3.48.49h-.35l-.58,0a14.48,14.48,0,0,1-3.68-.5c-1.12-.3-1.67-.77-1.67-1.38Zm-8,15.06v-15h-1.32v-1.85h1.32v-4.08l4.27-.2h.58v4.28h1.9v1.85h-1.9v14.29a.62.62,0,0,0,0,.18.85.85,0,0,0,.09.22,1.57,1.57,0,0,0,.49.41,1.82,1.82,0,0,0,.89.18h.41v1.78h-1.62a10.23,10.23,0,0,1-3.57-.51,2.59,2.59,0,0,1-1.44-1.1.92.92,0,0,1-.09-.23,1.11,1.11,0,0,1,0-.23M226,122.57v-3.79a.39.39,0,0,0-.26-.35,2.59,2.59,0,0,0-.61-.15,2.64,2.64,0,0,0-.55.15.38.38,0,0,0-.25.35v3.92a.73.73,0,0,0,.05.3,1.64,1.64,0,0,0,.17.26,4,4,0,0,0,1,.56c.46.2,1.11.45,1.95.76a7.52,7.52,0,0,1,1.65.74,5,5,0,0,1,1.06.84,2,2,0,0,1,.49.66,1.49,1.49,0,0,1,.15.63v6c0,.59-.57,1-1.7,1.33a15.5,15.5,0,0,1-3.72.48h-.17l-.58,0a15.1,15.1,0,0,1-3.57-.44c-1.08-.28-1.61-.69-1.61-1.24v-5.37h4.84v4.35a.49.49,0,0,0,.25.43.92.92,0,0,0,1.22,0,.46.46,0,0,0,.25-.39v-4.78a1,1,0,0,0,0-.25.49.49,0,0,0-.14-.25,3,3,0,0,0-.92-.65,13.8,13.8,0,0,0-2.08-.83,8.16,8.16,0,0,1-1.75-.82,4.85,4.85,0,0,1-1.13-1,2.38,2.38,0,0,1-.4-.62,1.59,1.59,0,0,1-.11-.6v-4.67c0-.64.55-1.12,1.67-1.45a12.89,12.89,0,0,1,3.68-.5h.93a12.63,12.63,0,0,1,3.48.53c1.06.33,1.59.8,1.59,1.42v4.38H226Zm-15.8,13.37-3.91-19.6h4.95l1,10.64.86-10.64h4.9l-3.34,20.07a3.37,3.37,0,0,1-2.28,2.6c-1.28.5-3.62.75-7,.75l-.63,0v-2a13.79,13.79,0,0,0,4.29-.48c.75-.29,1.12-.69,1.12-1.17Zm-10.48-13.37v-3.79a.39.39,0,0,0-.26-.35,2.48,2.48,0,0,0-.61-.15,2.64,2.64,0,0,0-.55.15.39.39,0,0,0-.26.35v3.92a.73.73,0,0,0,.06.3,1.64,1.64,0,0,0,.17.26,4,4,0,0,0,1,.56c.47.2,1.12.45,2,.76a7.74,7.74,0,0,1,1.65.74,5,5,0,0,1,1.06.84,2,2,0,0,1,.49.66,1.49,1.49,0,0,1,.15.63v6c0,.59-.57,1-1.7,1.33a15.5,15.5,0,0,1-3.72.48H199l-.58,0a15,15,0,0,1-3.57-.44c-1.08-.28-1.62-.69-1.62-1.24v-5.37h4.84v4.35a.5.5,0,0,0,.26.43,1.72,1.72,0,0,0,.61.23,1.6,1.6,0,0,0,.6-.23.45.45,0,0,0,.26-.39v-4.78a1,1,0,0,0,0-.25.58.58,0,0,0-.14-.25,3,3,0,0,0-.92-.65,13.8,13.8,0,0,0-2.08-.83,8.16,8.16,0,0,1-1.75-.82,4.65,4.65,0,0,1-1.13-1,2.38,2.38,0,0,1-.4-.62,1.61,1.61,0,0,1-.12-.6v-4.67c0-.64.56-1.12,1.67-1.45a13,13,0,0,1,3.69-.5h.93a12.63,12.63,0,0,1,3.48.53c1.06.33,1.59.8,1.59,1.42v4.38h-4.84Zm-18.1,12.58h-4.21V112h4.78v23.16Zm-11.59-16.37a.37.37,0,0,0-.26-.35,2.39,2.39,0,0,0-.6-.15,2.64,2.64,0,0,0-.55.15.39.39,0,0,0-.26.35v14a.36.36,0,0,0,.23.34,2.13,2.13,0,0,0,.52.18,1.68,1.68,0,0,0,.66-.16.39.39,0,0,0,.26-.36Zm4.84-.66v15.32c0,.59-.52,1-1.58,1.33a13.56,13.56,0,0,1-3.49.48h-.34l-.58,0a15.57,15.57,0,0,1-3.69-.47c-1.11-.3-1.67-.76-1.67-1.37V118.12c0-.66.56-1.15,1.67-1.48a13,13,0,0,1,3.69-.5h.92a12.34,12.34,0,0,1,3.49.53c1.06.33,1.58.81,1.58,1.45M151,116.34h4.32v.36c.73-.15,1.39-.27,2-.34a11.61,11.61,0,0,1,1.53-.12h.57a3.14,3.14,0,0,1,1.79.4,1.42,1.42,0,0,1,.58,1.25v5.76H157V119a.36.36,0,0,0-.26-.35,1.18,1.18,0,0,0-1.15,0,.38.38,0,0,0-.26.35v16.17h-4.9V116.34Zm-8.59,16.84v-15h-1.32v-1.85h1.32v-4.08l4.27-.2h.57v4.28h1.91v1.85h-1.91v14.29a.67.67,0,0,0,0,.18.85.85,0,0,0,.09.22,1.46,1.46,0,0,0,.49.41,1.82,1.82,0,0,0,.89.18h.41v1.78h-1.62a10.19,10.19,0,0,1-3.57-.51,2.59,2.59,0,0,1-1.44-1.1.92.92,0,0,1-.09-.23,1.11,1.11,0,0,1,0-.23m-9.57,2H128.5V116.34h4.9v.33c.69-.17,1.31-.3,1.87-.38a12.15,12.15,0,0,1,1.47-.11h.58a2.91,2.91,0,0,1,1.93.52,1.93,1.93,0,0,1,.6,1.52v16.93h-4.78V119a.43.43,0,0,0-.26-.4,1.56,1.56,0,0,0-.6-.16,1.52,1.52,0,0,0-.55.16.43.43,0,0,0-.26.4v16.17Zm-11.58-16.37a.39.39,0,0,0-.26-.35,2.48,2.48,0,0,0-.61-.15,2.39,2.39,0,0,0-.54.15.37.37,0,0,0-.26.35v14a.35.35,0,0,0,.23.34,2,2,0,0,0,.52.18,1.68,1.68,0,0,0,.66-.16.41.41,0,0,0,.26-.36Zm4.84-.66v15.32c0,.59-.53,1-1.58,1.33a13.56,13.56,0,0,1-3.49.48h-.35l-.58,0a15.48,15.48,0,0,1-3.68-.47c-1.12-.3-1.67-.76-1.67-1.37V118.12c0-.66.55-1.15,1.67-1.48a12.89,12.89,0,0,1,3.68-.5H121a12.34,12.34,0,0,1,3.49.53c1,.33,1.58.81,1.58,1.45m-25.13,0c0-.66.56-1.15,1.68-1.48a12.89,12.89,0,0,1,3.68-.5h.93a12.27,12.27,0,0,1,3.48.53c1.06.33,1.59.81,1.59,1.45v5.73h-4.85v-5.07a.38.38,0,0,0-.25-.35,2.59,2.59,0,0,0-.61-.15,2.64,2.64,0,0,0-.55.15.39.39,0,0,0-.26.35v14a.36.36,0,0,0,.23.34,2.13,2.13,0,0,0,.52.18,1.78,1.78,0,0,0,.67-.16.4.4,0,0,0,.25-.36v-5.67h4.85v6.36q0,.88-1.59,1.35a13.05,13.05,0,0,1-3.48.49h-.35l-.58,0a14.48,14.48,0,0,1-3.68-.5c-1.12-.3-1.68-.77-1.68-1.38Zm-23.14,0c0-.66.56-1.15,1.68-1.48a12.91,12.91,0,0,1,3.69-.5h.92a12.21,12.21,0,0,1,3.48.53c1.06.33,1.59.81,1.59,1.45v5.73H84.33v-5.07a.39.39,0,0,0-.26-.35,2.37,2.37,0,0,0-.61-.15,2.64,2.64,0,0,0-.55.15.38.38,0,0,0-.25.35v14a.35.35,0,0,0,.23.34,1.87,1.87,0,0,0,.52.18,1.78,1.78,0,0,0,.66-.16.41.41,0,0,0,.26-.36v-5.67h4.84v6.36q0,.88-1.59,1.35a13,13,0,0,1-3.48.49h-.35l-.57,0a11.37,11.37,0,0,1-3.69-.5c-1.12-.3-1.68-.77-1.68-1.38ZM75.22,112v2.44H70.44V112h4.78Zm-.58,23.16h-4.2V116.34h4.78v18.81ZM57.76,116.34h4.32v.36c.73-.15,1.39-.27,2-.34a11.74,11.74,0,0,1,1.53-.12h.57a3.16,3.16,0,0,1,1.79.4,1.42,1.42,0,0,1,.58,1.25v5.76H63.75V119a.36.36,0,0,0-.26-.35,1.18,1.18,0,0,0-1.15,0,.38.38,0,0,0-.26.35v16.17h-4.9V116.34Zm-8.59,16.84v-15H47.85v-1.85h1.32v-4.08l4.27-.2H54v4.28h1.9v1.85H54v14.29a.67.67,0,0,0,0,.18.54.54,0,0,0,.09.22,1.57,1.57,0,0,0,.49.41,1.82,1.82,0,0,0,.89.18h.4v1.78H54.3a9.73,9.73,0,0,1-3.57-.51,2.63,2.63,0,0,1-1.44-1.1.92.92,0,0,1-.09-.23,1.11,1.11,0,0,1,0-.23M35.28,118.12c0-.66.56-1.15,1.67-1.48a13,13,0,0,1,3.69-.5h.92a12.28,12.28,0,0,1,3.49.53c1.06.33,1.59.81,1.59,1.45v5.73H41.8v-5.07a.39.39,0,0,0-.26-.35,2.59,2.59,0,0,0-.61-.15,2.48,2.48,0,0,0-.55.15.39.39,0,0,0-.26.35v14a.36.36,0,0,0,.23.34,2.13,2.13,0,0,0,.52.18,1.78,1.78,0,0,0,.67-.16.41.41,0,0,0,.26-.36v-5.67h4.84v6.36q0,.88-1.59,1.35a13.07,13.07,0,0,1-3.49.49h-.34l-.58,0a11.44,11.44,0,0,1-3.69-.5c-1.11-.3-1.67-.77-1.67-1.38ZM28,124.25v-5.47a.39.39,0,0,0-.26-.35,2.39,2.39,0,0,0-.6-.15,2.34,2.34,0,0,0-.55.15.37.37,0,0,0-.26.35v5.47Zm-6.51-6.13c0-.66.55-1.15,1.67-1.48a12.91,12.91,0,0,1,3.69-.5h.92a12.34,12.34,0,0,1,3.49.53c1,.33,1.58.81,1.58,1.45v8.17H26.35v6.46a.36.36,0,0,0,.23.34,1.87,1.87,0,0,0,.52.18,1.68,1.68,0,0,0,.66-.16.41.41,0,0,0,.26-.36V128.4h4.84v5c0,.59-.53,1-1.58,1.35a13.13,13.13,0,0,1-3.49.49h-.35l-.57,0a11.41,11.41,0,0,1-3.69-.5c-1.12-.3-1.67-.77-1.67-1.38Zm-3.17,17H14.13V112h4.78v23.16ZM6.75,124.25v-5.47a.37.37,0,0,0-.26-.35,2.39,2.39,0,0,0-.6-.15,2.64,2.64,0,0,0-.55.15.39.39,0,0,0-.26.35v5.47ZM.24,118.12c0-.66.56-1.15,1.67-1.48a13,13,0,0,1,3.69-.5h.92a12.34,12.34,0,0,1,3.49.53c1.06.33,1.58.81,1.58,1.45v8.17H5.08v6.46a.36.36,0,0,0,.23.34,2.13,2.13,0,0,0,.52.18,1.68,1.68,0,0,0,.66-.16.39.39,0,0,0,.26-.36V128.4h4.84v5c0,.59-.52,1-1.58,1.35a13.13,13.13,0,0,1-3.49.49H6.18l-.58,0a11.44,11.44,0,0,1-3.69-.5c-1.11-.3-1.67-.77-1.67-1.38Z"></path> </g> </g> </svg>